# xmcd
#
# Track frame offsets:
#	150
#	27594
#	45607
#	74463
#	100836
#	137581
#	177518
#	206835
#	237234
#	260419
#	276623
#	302603
#
# Disc length: 4341 seconds
#
# Revision: 1
# Processed by: cddbd v1.5.1PL0 Copyright (c) Steve Scherf et al.
# Submitted via: EasyCDDAExtractor 7.0.3.1
#
DISCID=b710f30c
DTITLE=Various Artist - DEE JAY MIX CLUB 2005 SIERPIEÑ PART 1
DYEAR=2005
DGENRE=Dance
TTITLE0=BITTER SWEET - FIRST SIGHT(MARTIN CHASTE VS. FORSECO RMX)
TTITLE1=FORSECO - LA VIDA(ELEPHUNK! RMX)
TTITLE2=LUCA NOISE - SOSTANZA NOETICA(GIGI D'AGOSTINO and LUCA MOICE RMX)
TTITLE3=DJ PANDOLFI - MAIN TITLE/THE KISS(GIGI D'AGOSTINO and PANDOLFI MIX)
TTITLE4=GAUDINO FEAT ULTRA NATE - BITTERSWEET MELODY(KTF VOCAL REMIX)
TTITLE5=BON GARCON - FREEK U(HAJI and EMANUEL RMX)
TTITLE6=JOHN MORLEY - FRIDAY NIGHT(CLUB MIX)
TTITLE7=MOONBOOTICA - MUSTANG 86(EXTENTED
TTITLE8=HABIBI - DIS MOI HABIBI(PIRAZ DOMMU MIX)
TTITLE9=MINI CLUB - VEO VEO(ALBUM VERSION)
TTITLE10=OFFICINA EMOTIVA - THE POWER OF LOVE(EXTENTED)
TTITLE11=BLUE LAGOON - HEARTBREAKER(EXTENTED VERSION)
EXTD=
EXTT0=
EXTT1=
EXTT2=
EXTT3=
EXTT4=
EXTT5=
EXTT6=
EXTT7=
EXTT8=
EXTT9=
EXTT10=
EXTT11=
PLAYORDER=
